<?xml version="1.0" encoding="UTF-8" standalone="no"?>
<!-- Created with Inkscape (http://www.inkscape.org/) -->

<svg
   xmlns:dc="http://purl.org/dc/elements/1.1/"
   xmlns:cc="http://creativecommons.org/ns#"
   xmlns:rdf="http://www.w3.org/1999/02/22-rdf-syntax-ns#"
   xmlns:svg="http://www.w3.org/2000/svg"
   xmlns="http://www.w3.org/2000/svg"
   xmlns:sodipodi="http://sodipodi.sourceforge.net/DTD/sodipodi-0.dtd"
   xmlns:inkscape="http://www.inkscape.org/namespaces/inkscape"
   width="16"
   height="16"
   viewBox="0 0 4.2333332 4.2333335"
   version="1.1"
   id="svg8"
   inkscape:version="0.92.4 (5da689c313, 2019-01-14)"
   sodipodi:docname="editor_icons.svg">
  <defs
     id="defs2" />
  <sodipodi:namedview
     id="base"
     pagecolor="#ffffff"
     bordercolor="#666666"
     borderopacity="1.0"
     inkscape:pageopacity="0.0"
     inkscape:pageshadow="2"
     inkscape:zoom="8"
     inkscape:cx="-26.557999"
     inkscape:cy="-80.68907"
     inkscape:document-units="px"
     inkscape:current-layer="layer1"
     showgrid="false"
     units="px"
     inkscape:window-width="3840"
     inkscape:window-height="2035"
     inkscape:window-x="-13"
     inkscape:window-y="-13"
     inkscape:window-maximized="1"
     inkscape:lockguides="false" />
  <metadata
     id="metadata5">
    <rdf:RDF>
      <cc:Work
         rdf:about="">
        <dc:format>image/svg+xml</dc:format>
        <dc:type
           rdf:resource="http://purl.org/dc/dcmitype/StillImage" />
        <dc:title></dc:title>
      </cc:Work>
    </rdf:RDF>
  </metadata>
  <g
     inkscape:label="Layer 1"
     inkscape:groupmode="layer"
     id="layer1"
     transform="translate(0,-292.76666)">
    <rect
       ry="0"
       rx="0"
       y="292.76666"
       x="-0.59528393"
       height="4.2333336"
       width="4.2333336"
       id="rect5342"
       style="opacity:1;vector-effect:none;fill:#000000;fill-opacity:0;stroke:none;stroke-width:63.08065414;stroke-linecap:round;stroke-linejoin:round;stroke-miterlimit:4;stroke-dasharray:none;stroke-dashoffset:0;stroke-opacity:1"
       inkscape:export-filename="E:\Repositories\surfacer\addons/scaffold/assets/images\editor_icons\ShinyButton.png"
       inkscape:export-xdpi="192.05"
       inkscape:export-ydpi="192.05" />
    <rect
       style="opacity:1;vector-effect:none;fill:#000000;fill-opacity:0;stroke:none;stroke-width:63.08065414;stroke-linecap:round;stroke-linejoin:round;stroke-miterlimit:4;stroke-dasharray:none;stroke-dashoffset:0;stroke-opacity:1"
       id="rect5342-6"
       width="4.2333336"
       height="4.2333336"
       x="-0.59528393"
       y="299.84427"
       rx="0"
       ry="0"
       inkscape:export-xdpi="192.05"
       inkscape:export-ydpi="192.05" />
    <rect
       style="opacity:1;vector-effect:none;fill:#000000;fill-opacity:0;stroke:none;stroke-width:63.08065414;stroke-linecap:round;stroke-linejoin:round;stroke-miterlimit:4;stroke-dasharray:none;stroke-dashoffset:0;stroke-opacity:1"
       id="rect5342-1"
       width="4.2333336"
       height="4.2333336"
       x="-0.59528393"
       y="305.41809"
       rx="0"
       ry="0"
       inkscape:export-xdpi="192.05"
       inkscape:export-ydpi="192.05" />
    <rect
       style="opacity:1;vector-effect:none;fill:#000000;fill-opacity:0;stroke:none;stroke-width:63.08065414;stroke-linecap:round;stroke-linejoin:round;stroke-miterlimit:4;stroke-dasharray:none;stroke-dashoffset:0;stroke-opacity:1"
       id="rect5342-2"
       width="4.2333336"
       height="4.2333336"
       x="-0.59528399"
       y="311.08725"
       rx="0"
       ry="0"
       inkscape:export-xdpi="192.05"
       inkscape:export-ydpi="192.05" />
    <rect
       style="opacity:1;vector-effect:none;fill:#000000;fill-opacity:0;stroke:none;stroke-width:63.08065414;stroke-linecap:round;stroke-linejoin:round;stroke-miterlimit:4;stroke-dasharray:none;stroke-dashoffset:0;stroke-opacity:1"
       id="rect5342-7"
       width="4.2333336"
       height="4.2333336"
       x="-0.59528393"
       y="316.75638"
       rx="0"
       ry="0"
       inkscape:export-xdpi="192.05"
       inkscape:export-ydpi="192.05" />
    <rect
       style="opacity:1;vector-effect:none;fill:#000000;fill-opacity:0;stroke:none;stroke-width:63.08065414;stroke-linecap:round;stroke-linejoin:round;stroke-miterlimit:4;stroke-dasharray:none;stroke-dashoffset:0;stroke-opacity:1"
       id="rect5342-8"
       width="4.2333336"
       height="4.2333336"
       x="-0.59528399"
       y="322.42551"
       rx="0"
       ry="0"
       inkscape:export-xdpi="192.05"
       inkscape:export-ydpi="192.05" />
    <rect
       style="opacity:1;vector-effect:none;fill:#000000;fill-opacity:0;stroke:none;stroke-width:63.08065414;stroke-linecap:round;stroke-linejoin:round;stroke-miterlimit:4;stroke-dasharray:none;stroke-dashoffset:0;stroke-opacity:1"
       id="rect5342-3"
       width="4.2333336"
       height="4.2333336"
       x="-0.59528393"
       y="328.09464"
       rx="0"
       ry="0"
       inkscape:export-xdpi="192.05"
       inkscape:export-ydpi="192.05" />
    <rect
       style="opacity:1;vector-effect:none;fill:#000000;fill-opacity:0;stroke:none;stroke-width:63.08065414;stroke-linecap:round;stroke-linejoin:round;stroke-miterlimit:4;stroke-dasharray:none;stroke-dashoffset:0;stroke-opacity:1"
       id="rect5342-5"
       width="4.2333336"
       height="4.2333336"
       x="-0.59528393"
       y="333.76376"
       rx="0"
       ry="0"
       inkscape:export-xdpi="192.05"
       inkscape:export-ydpi="192.05" />
    <rect
       style="opacity:1;vector-effect:none;fill:#000000;fill-opacity:0;stroke:none;stroke-width:63.08065414;stroke-linecap:round;stroke-linejoin:round;stroke-miterlimit:4;stroke-dasharray:none;stroke-dashoffset:0;stroke-opacity:1"
       id="rect5342-88"
       width="4.2333336"
       height="4.2333336"
       x="-0.59528393"
       y="339.43289"
       rx="0"
       ry="0"
       inkscape:export-xdpi="192.05"
       inkscape:export-ydpi="192.05" />
    <g
       id="g1265"
       transform="translate(-0.06611714,46.269366)"
       inkscape:export-xdpi="192.05"
       inkscape:export-ydpi="192.05">
      <path
         transform="matrix(0.26458333,0,0,0.26458333,0,292.76666)"
         id="path1086-4"
         d="M 5,3 V 6.1328125 L 3.5546875,5.1679688 2.4453125,6.8320312 4.8730469,8.4511719 7,4.7675781 V 3 Z M 8.4003906,6.34375 7.21875,8.3886719 H 7.2207 Z M 9.4042969,6.6054688 9.0957031,7.1386719 9.5546875,6.8320312 Z M 4.5546875,11 1.6679688,16 h 0.00195 z m 2.3105469,0 -2.8867188,5 H 12 V 14 H 10 V 12.5 C 10,11.668995 9.3310009,11 8.5,11 Z M 3.3945312,11.01172 C 2.6141782,11.066572 2,11.705213 2,12.5 v 0.927734 z M 0,14 v 2 h 0.515625 l 1.1542969,-2 z"
         style="fill:#f6ed7a;fill-opacity:1;stroke-width:1"
         inkscape:connector-curvature="0" />
      <path
         id="path1086-4-3"
         transform="matrix(0.26458333,0,0,0.26458333,0,292.76666)"
         d="M 8.7851562,5.6777344 7.21875,8.3886719 l 1.8769531,-1.25 0.3085938,-0.5332031 z M 5.7109375,11 2.8242188,16 h 1.1542968 l 2.8867188,-5 z"
         style="opacity:0;fill:#f6ed7a;fill-opacity:1;stroke-width:1"
         inkscape:connector-curvature="0" />
      <path
         id="path1086-4-35"
         transform="matrix(0.26458333,0,0,0.26458333,0,292.76666)"
         d="M 8.4453125,5.1679688 7.5957031,5.734375 5.7324219,8.9628906 A 1.0001,1.0001 0 0 0 6.5546875,8.8320312 L 7.21875,8.3886719 8.7851562,5.6777344 Z M 4.5566406,11 1.6699219,16 h 1.1542969 l 2.8867187,-5 z"
         style="opacity:0.3;fill:#f6ed7a;fill-opacity:1;stroke-width:1"
         inkscape:connector-curvature="0" />
      <path
         id="path1086-4-8"
         transform="matrix(0.26458333,0,0,0.26458333,0,292.76666)"
         d="M 7,4.7695312 4.8730469,8.4511719 5.4453125,8.8320312 A 1.0001,1.0001 0 0 0 5.7324219,8.9628906 L 7.5957031,5.734375 7,6.1328125 Z M 3.5,11 C 3.464445,11 3.431406,11.0093 3.3964844,11.01172 L 2,13.427734 V 14 H 1.6699219 L 0.515625,16 h 1.1542969 l 2.8867187,-5 z"
         style="opacity:0.6;fill:#f6ed7a;fill-opacity:1;stroke-width:1"
         inkscape:connector-curvature="0" />
    </g>
    <path
       style="opacity:1;vector-effect:none;fill:#1ca1f2;fill-opacity:1;stroke:none;stroke-width:77.32202148;stroke-linecap:round;stroke-linejoin:round;stroke-miterlimit:4;stroke-dasharray:none;stroke-dashoffset:0;stroke-opacity:1"
       d="m -15.2595,303.92095 c -0.147815,0 -0.266651,0.11883 -0.266651,0.26665 v 3.70003 c 0,0.14781 0.118836,0.26665 0.266651,0.26665 h 3.700032 c 0.147814,0 0.26665,-0.11884 0.26665,-0.26665 v -3.70003 c 0,-0.14782 -0.118836,-0.26665 -0.26665,-0.26665 z m -0.0021,0.26458 h 3.704166 v 3.70417 H -15.2616 Z"
       id="rect815"
       inkscape:connector-curvature="0" />
    <g
       id="g1073"
       style="fill:#f6ed7a;fill-opacity:1"
       transform="translate(-15.555383,6.6349306)">
      <path
         id="rect833"
         transform="matrix(0.26458333,0,0,0.26458333,0,292.76666)"
         d="m 6.7988281,0 v 6.515625 l -3.1953125,-1.84375 -1,1.7304688 3.4394532,1.9863281 2.7558593,-4.7714844 V 0 Z M 11.996094,4.671875 11.482422,4.96875 9.484375,8.4296875 12.996094,6.4023438 Z M 3.0117188,11 C 2.4512266,11 2,11.451215 2,12.011719 V 12.753906 12.988281 14 H 0 v 2 H 1.6484375 L 4.5351562,11 Z M 8,11 5.1132812,16 H 16 V 14 H 14 V 12.988281 12.753906 12.011719 C 14,11.451215 13.548773,11 12.988281,11 Z"
         style="opacity:1;vector-effect:none;fill:#f6ed7a;fill-opacity:1;stroke:none;stroke-width:285.76855469;stroke-linecap:round;stroke-linejoin:round;stroke-miterlimit:4;stroke-dasharray:none;stroke-dashoffset:0;stroke-opacity:1"
         inkscape:connector-curvature="0" />
      <g
         style="opacity:0.33000004;fill:#f6ed7a;fill-opacity:1"
         id="g1009">
        <path
           style="opacity:1;vector-effect:none;fill:#f6ed7a;fill-opacity:1;stroke:none;stroke-width:285.76855469;stroke-linecap:round;stroke-linejoin:round;stroke-miterlimit:4;stroke-dasharray:none;stroke-dashoffset:0;stroke-opacity:1"
           d="m 8.7988281,5.6152344 -1.890625,3.2734375 0.8671875,0.5 L 9.5996094,6.2304688 9.7519531,5.9667969 8.7988281,6.5175781 Z M 5.6894531,11 2.8027344,16 h 1.15625 L 5.9609375,12.533203 6.8457031,11 Z"
           transform="matrix(0.26458333,0,0,0.26458333,0,292.76666)"
           id="rect833-6"
           inkscape:connector-curvature="0" />
      </g>
      <path
         id="rect833-1"
         d="m 2.3280233,293.72371 -0.7291545,1.26246 0.2289266,0.13229 0.5002279,-0.8661 z M 1.1999268,295.67708 0.43614909,297 h 0.30540772 l 0.76377769,-1.32292 z"
         style="opacity:0.66000001;vector-effect:none;fill:#f6ed7a;fill-opacity:1;stroke:none;stroke-width:75.60959625;stroke-linecap:round;stroke-linejoin:round;stroke-miterlimit:4;stroke-dasharray:none;stroke-dashoffset:0;stroke-opacity:1"
         inkscape:connector-curvature="0" />
    </g>
    <path
       id="path1075"
       d="m -6.7484077,290.71453 c -0.292258,0 -0.529166,0.23692 -0.529166,0.52917 v 2.64583 c 0,0.29226 0.236915,0.52917 0.529166,0.52917 h 2.645833 c 0.292259,0 0.529167,-0.23692 0.529167,-0.52917 v -2.64583 c 0,-0.29226 -0.236916,-0.52917 -0.529167,-0.52917 z m 0,0.52917 h 2.645833 v 2.64583 h -2.645833 z m 0.79375,0.26458 0.529167,0.52917 0.529166,-0.52917 z m -0.529167,0.52917 v 1.05833 l 0.529167,-0.52916 z m 2.116667,0 -0.529167,0.52917 0.529167,0.52916 z m -1.058333,1.05833 -0.529167,0.52917 h 1.058333 z"
       inkscape:connector-curvature="0"
       style="fill:#a5efac;stroke-width:0.26458335" />
    <path
       id="path1086"
       d="m -5.9878297,286.50775 v 0.82889 l -0.382402,-0.25528 -0.293529,0.44029 0.79375,0.52917 a 0.26460979,0.26460979 0 0 0 0.293529,0 l 0.79375,-0.52917 -0.293529,-0.44029 -0.382402,0.25528 v -0.82889 z m -0.396875,2.11667 c -0.219868,0 -0.396875,0.17701 -0.396875,0.39688 v 0.39687 h -0.529166 v 0.52917 h 3.175 v -0.52917 h -0.529167 v -0.39687 c 0,-0.21987 -0.177006,-0.39688 -0.396875,-0.39688 z"
       inkscape:connector-curvature="0"
       style="fill:#a5efac;stroke-width:0.26458335" />
    <path
       id="path1097"
       d="m -11.604892,286.18645 v 3.70417 h 3.7041663 v -3.70417 z m 0.529167,0.52917 h 2.6458323 v 2.64583 h -2.6458323 z m 1.5874999,0.79375 v 0.26458 h -0.264583 v 0.26459 h -0.5291669 v 0.26458 h -0.264583 v 0.26458 h -0.264584 v 0.26459 h 0.529167 0.5291669 0.5291658 0.5291666 v -0.52917 h -0.2645826 v -0.52917 h -0.264584 v -0.26458 z"
       inkscape:connector-curvature="0"
       style="fill:#a5efac;stroke-width:0.26458335" />
    <g
       id="g1112"
       transform="matrix(0.26458333,0,0,0.26458333,-11.804551,15.690142)">
      <path
         id="path1108"
         transform="translate(0,1036.4)"
         d="M 3,3 C 1.8954,3 1,3.89543 1,5 v 6 c 0,1.1046 0.89543,2 2,2 h 5 1 1 2 1 c 1.1046,0 2,-0.89543 2,-2 V 5 C 15,3.8954 14.10457,3 13,3 H 12 10 9 8 Z m 8,2.9863 a 1.0001,1.0001 0 0 1 0.7168,1.7207 l -3,3 a 1.0001,1.0001 0 0 1 -1.4141,0 l -3,-3 a 1.0001,1.0001 0 0 1 0.69727,-1.7168 1.0001,1.0001 0 0 1 0.7168,0.30273 l 2.293,2.293 2.293,-2.293 a 1.0001,1.0001 0 0 1 0.69727,-0.30664 z"
         inkscape:connector-curvature="0"
         style="fill:#a5efac" />
      <path
         id="path1110"
         d="m 4,1042.4 h 4 v 4 H 4 Z"
         inkscape:connector-curvature="0"
         style="fill:none" />
    </g>
    <path
       id="path1097-6"
       d="m -0.33070001,328.35922 v 3.70417 H 3.3734657 v -3.70417 z m 0.529166,0.52917 H 2.8442986 v 2.64583 H 0.19846599 Z m 1.58749991,0.79375 v 0.26458 h -0.264583 v 0.26459 H 0.99221602 v 0.26458 h -0.264583 v 0.26458 H 0.46304899 v 0.26459 h 0.52916703 0.52916688 0.529166 0.529167 v -0.52917 h -0.264583 v -0.52917 h -0.264584 v -0.26458 z"
       inkscape:connector-curvature="0"
       style="fill:#f6ed7a;fill-opacity:1;stroke-width:0.26458335"
       inkscape:export-xdpi="192.05"
       inkscape:export-ydpi="192.05" />
    <path
       id="path1235"
       d="m 1.5213827,334.02835 v 0.52917 h 1.5875 v 2.64583 h -1.058333 v 0.52917 h 1.5875 v -3.70417 z m -1.32291671,0.26459 v 0.82888 l -0.382402,-0.25528 -0.293529,0.4403 0.79375,0.52916 c 0.08887,0.0592 0.20464803,0.0592 0.29352903,0 l 0.79374968,-0.52916 -0.2935287,-0.4403 -0.38240198,0.25528 v -0.82888 z m 1.85208371,1.05833 v 0.26458 h -0.264584 v 0.26459 h -0.264583 v 0.26458 h 0.264583 v 0.52917 h 0.529167 0.529167 v -0.52917 h -0.264584 v -0.52917 h -0.264583 v -0.26458 z m -1.98437471,1.05833 c -0.219869,0 -0.396875,0.17701 -0.396875,0.39688 v 0.13229 0.26458 h -0.264584 v 0.52917 H 1.5213827 v -0.52917 h -0.264583 v -0.26458 -0.13229 c 0,-0.21987 -0.1770057,-0.39688 -0.39687468,-0.39688 z"
       inkscape:connector-curvature="0"
       style="fill:#f6ed7a;fill-opacity:1;stroke-width:0.26458335"
       inkscape:export-xdpi="192.05"
       inkscape:export-ydpi="192.05" />
    <path
       id="path1235-9"
       d="m -14.469401,286.35051 v 0.52917 h 1.5875 v 2.64583 h -1.058333 v 0.52917 h 1.5875 v -3.70417 z m -1.322917,0.26459 v 0.82888 l -0.382402,-0.25528 -0.293529,0.4403 0.79375,0.52916 c 0.08887,0.0592 0.204648,0.0592 0.293529,0 l 0.79375,-0.52916 -0.293529,-0.4403 -0.382402,0.25528 v -0.82888 z m 1.852084,1.05833 v 0.26458 h -0.264584 v 0.26459 h -0.264583 v 0.26458 h 0.264583 v 0.52917 h 0.529167 0.529167 v -0.52917 h -0.264584 v -0.52917 h -0.264583 v -0.26458 z m -1.984375,1.05833 c -0.219869,0 -0.396875,0.17701 -0.396875,0.39688 v 0.13229 0.26458 h -0.264584 v 0.52917 h 2.116667 v -0.52917 h -0.264583 v -0.26458 -0.13229 c 0,-0.21987 -0.177006,-0.39688 -0.396875,-0.39688 z"
       inkscape:connector-curvature="0"
       style="fill:#a5efac;stroke-width:0.26458335" />
    <path
       id="path1075-9-2"
       d="m 0.19846589,305.68268 c -0.292258,0 -0.529166,0.23692 -0.529166,0.52917 v 2.64583 c 0,0.29226 0.236915,0.52917 0.529166,0.52917 H 2.8442989 c 0.292259,0 0.5291669,-0.23692 0.5291669,-0.52917 v -2.64583 c 0,-0.29226 -0.2369159,-0.52917 -0.5291669,-0.52917 z m 0,0.52917 H 2.8442989 v 2.64583 H 0.19846589 Z m 0.79375003,0.26458 0.52916688,0.52917 0.5291661,-0.52917 z m -0.52916703,0.52917 v 1.05833 l 0.52916703,-0.52916 z m 2.11666691,0 -0.5291669,0.52917 0.5291669,0.52916 z m -1.058333,1.05833 -0.52916688,0.52917 H 2.0505489 Z"
       inkscape:connector-curvature="0"
       style="fill:#f6ed7a;fill-opacity:1;stroke-width:0.26458335"
       inkscape:export-xdpi="192.05"
       inkscape:export-ydpi="192.05" />
    <path
       style="fill:#f6ed7a;fill-opacity:1;stroke-width:0.26458332"
       d="m 1.5208661,299.8448 -0.52916666,0.52917 H 2.0500328 Z m -0.79374996,0.79323 c -0.2920172,2.9e-4 -0.52865003,0.2371 -0.52865003,0.52917 h -5.167e-4 v 1.5875 c 0,0.29225 0.23691673,0.52917 0.52916673,0.52917 h 5.167e-4 v 5.1e-4 H 2.3151329 c 0.2922601,0 0.5291666,-0.23691 0.5291666,-0.52916 v -5.2e-4 -1.5875 c 0,-0.29225 -0.2369166,-0.52917 -0.5291666,-0.52917 z m 5.167e-4,0.52917 H 2.3151329 v 1.5875 H 0.72763284 Z m 2.38073326,0.26407 v 1.05833 l 0.5291667,-0.52917 z m -3.17396649,0.001 -0.5291667,0.52917 0.5291667,0.52916 z m 1.05833333,2.11563 0.52916676,0.52917 0.5291666,-0.52917 z"
       id="path1075-9"
       inkscape:connector-curvature="0"
       inkscape:export-xdpi="192.05"
       inkscape:export-ydpi="192.05" />
    <g
       id="g5195"
       transform="translate(-0.33070016,23.72513)"
       inkscape:export-xdpi="192.05"
       inkscape:export-ydpi="192.05">
      <path
         sodipodi:nodetypes="ccccccccccc"
         id="path1108-8"
         d="m 2.7783703,294.08784 c 0.1206056,-0.003 0.1817801,0.144 0.094827,0.22763 l -0.396875,0.39687 c -0.051664,0.0516 -0.1354093,0.0516 -0.1870737,0 l -0.396875,-0.39687 c -0.085073,-0.0828 -0.026475,-0.22708 0.092243,-0.22712 0.03572,0 0.06992,0.0145 0.094827,0.0401 l 0.3033448,0.30335 0.3033448,-0.30335 c 0.024195,-0.0251 0.05735,-0.0398 0.092243,-0.0405 z"
         inkscape:connector-curvature="0"
         style="fill:#f6ed7a;fill-opacity:1;stroke-width:0.13229166" />
      <path
         sodipodi:nodetypes="sssssssssccccc"
         style="fill:#f6ed7a;fill-opacity:1;stroke-width:0.26458335"
         inkscape:connector-curvature="0"
         d="M 0.5291659,293.29582 C 0.236908,293.29582 0,293.53274 0,293.82499 v 2.64583 c 0,0.29226 0.236915,0.52917 0.5291659,0.52917 h 2.6458332 c 0.292259,0 0.5291669,-0.23692 0.5291669,-0.52917 v -2.64583 c 0,-0.29226 -0.2369159,-0.52917 -0.5291669,-0.52917 z m 0,0.52917 h 2.6458332 v 2.64583 H 0.5291659 Z"
         id="path1075-9-2-8" />
    </g>
    <g
       id="g5266"
       transform="translate(-0.33070049,18.055988)"
       inkscape:export-xdpi="192.05"
       inkscape:export-ydpi="192.05">
      <rect
         y="296.47083"
         x="1.110223e-16"
         height="0.5291667"
         width="3.7041667"
         id="rect5218"
         style="opacity:1;vector-effect:none;fill:#f6ed7a;fill-opacity:1;stroke:none;stroke-width:60.77967072;stroke-linecap:round;stroke-linejoin:round;stroke-miterlimit:4;stroke-dasharray:none;stroke-dashoffset:0;stroke-opacity:1" />
      <rect
         y="294.35416"
         x="1.110223e-16"
         height="0.5291667"
         width="3.7041667"
         id="rect5218-5"
         style="opacity:1;vector-effect:none;fill:#f6ed7a;fill-opacity:1;stroke:none;stroke-width:60.7796669;stroke-linecap:round;stroke-linejoin:round;stroke-miterlimit:4;stroke-dasharray:none;stroke-dashoffset:0;stroke-opacity:1" />
      <rect
         y="295.41251"
         x="1.110223e-16"
         height="0.5291667"
         width="3.7041667"
         id="rect5218-9"
         style="opacity:1;vector-effect:none;fill:#f6ed7a;fill-opacity:1;stroke:none;stroke-width:60.7796669;stroke-linecap:round;stroke-linejoin:round;stroke-miterlimit:4;stroke-dasharray:none;stroke-dashoffset:0;stroke-opacity:1" />
      <rect
         y="293.29584"
         x="1.110223e-16"
         height="0.5291667"
         width="3.7041667"
         id="rect5218-5-2"
         style="opacity:1;vector-effect:none;fill:#f6ed7a;fill-opacity:1;stroke:none;stroke-width:60.7796669;stroke-linecap:round;stroke-linejoin:round;stroke-miterlimit:4;stroke-dasharray:none;stroke-dashoffset:0;stroke-opacity:1" />
    </g>
    <g
       id="g5310"
       transform="translate(-0.06611714,28.6074)"
       inkscape:export-xdpi="192.05"
       inkscape:export-ydpi="192.05">
      <path
         sodipodi:nodetypes="ccccccccccc"
         id="path1108-8-9"
         d="M 9.0431359e-5,295.14095 C -0.00590957,294.89975 0.28809043,294.77739 0.45535043,294.95135 l 0.79373997,0.79376 c 0.1032,0.1034 0.1032,0.27082 0,0.37414 l -0.79373997,0.79376 c -0.1656,0.1702 -0.45416,0.053 -0.45424,-0.1844 0,-0.0714 0.029,-0.1398 0.0802,-0.1896 l 0.6067,-0.6067 -0.6067,-0.60668 c -0.0502,-0.0484 -0.0796,-0.1148 -0.0809999986,-0.1844 z"
         inkscape:connector-curvature="0"
         style="fill:#f6ed7a;fill-opacity:1;stroke-width:0.26458332" />
      <rect
         ry="0.26458335"
         rx="0.26458335"
         y="296.47083"
         x="1.5875"
         height="0.5291667"
         width="1.5875"
         id="rect5306"
         style="opacity:1;vector-effect:none;fill:#f6ed7a;fill-opacity:1;stroke:none;stroke-width:72.69268799;stroke-linecap:round;stroke-linejoin:round;stroke-miterlimit:4;stroke-dasharray:none;stroke-dashoffset:0;stroke-opacity:1" />
    </g>
    <path
       style="opacity:1;vector-effect:none;fill:#f6ed7a;fill-opacity:1;stroke:none;stroke-width:38.62885284;stroke-linecap:round;stroke-linejoin:round;stroke-miterlimit:4;stroke-dasharray:none;stroke-dashoffset:0;stroke-opacity:1"
       d="m 0.7704956,294.35438 c 0.0755119,-0.0138 0.15654962,0.0412 0.15657957,0.13023 0,0.0357 -0.0141909,0.0702 -0.0397908,0.0951 l -0.30334066,0.30334 0.30334066,0.30334 c 0.0251,0.0242 0.0396076,0.0571 0.0403076,0.092 v 5.1e-4 c 0.003,0.12061 -0.14374629,0.18155 -0.22737629,0.0946 l -0.396875,-0.39687 c -0.0516,-0.0517 -0.0516,-0.13541 0,-0.18707 l 0.396875,-0.39688 c 0.0206999,-0.0213 0.0451093,-0.0336 0.0702799,-0.0382 z m 0.7947835,0.39843 h 1.102775 c 0.061075,0 0.1100709,0.059 0.1100709,0.13229 0,0.0733 -0.048996,0.13229 -0.1100709,0.13229 h -1.102775 c -0.061075,0 -0.1100708,-0.059 -0.1100708,-0.13229 0,-0.0733 0.048996,-0.13229 0.1100708,-0.13229 z"
       id="rect5342-68"
       inkscape:connector-curvature="0"
       sodipodi:nodetypes="sccccccccccssssssss"
       inkscape:export-filename="E:\Repositories\surfacer\addons/scaffold/assets/images\editor_icons\ShinyButton.png"
       inkscape:export-xdpi="192.05"
       inkscape:export-ydpi="192.05" />
  </g>
</svg>
