<?xml version="1.0" encoding="UTF-8" standalone="no"?>
<!-- Created with Inkscape (http://www.inkscape.org/) -->

<svg
   width="16"
   height="16"
   viewBox="0 0 4.2333332 4.2333333"
   version="1.1"
   id="svg1"
   inkscape:version="1.4 (86a8ad7, 2024-10-11)"
   sodipodi:docname="Node.svg"
   xmlns:inkscape="http://www.inkscape.org/namespaces/inkscape"
   xmlns:sodipodi="http://sodipodi.sourceforge.net/DTD/sodipodi-0.dtd"
   xmlns="http://www.w3.org/2000/svg"
   xmlns:svg="http://www.w3.org/2000/svg">
  <sodipodi:namedview
     id="namedview1"
     pagecolor="#ffffff"
     bordercolor="#999999"
     borderopacity="1"
     inkscape:showpageshadow="0"
     inkscape:pageopacity="0"
     inkscape:pagecheckerboard="true"
     inkscape:deskcolor="#d1d1d1"
     inkscape:document-units="px"
     inkscape:zoom="28.963094"
     inkscape:cx="9.7710555"
     inkscape:cy="10.87591"
     inkscape:window-width="1920"
     inkscape:window-height="1010"
     inkscape:window-x="1913"
     inkscape:window-y="-5"
     inkscape:window-maximized="1"
     inkscape:current-layer="layer1" />
  <defs
     id="defs1" />
  <g
     inkscape:label="Layer 1"
     inkscape:groupmode="layer"
     id="layer1">
    <path
       d="m 2.1166666,0.52916666 a 1.5875,1.5875 0 0 0 -1.58749994,1.58750004 1.5875,1.5875 0 0 0 1.58749994,1.5875 1.5875,1.5875 0 0 0 1.5875,-1.5875 1.5875,1.5875 0 0 0 -1.5875,-1.58750004 z m 0,0.52916004 a 1.0583333,1.0583333 0 0 1 1.058333,1.05834 1.0583333,1.0583333 0 0 1 -1.058333,1.05833 1.0583333,1.0583333 0 0 1 -1.058333,-1.05833 1.0583333,1.0583333 0 0 1 1.058333,-1.05834 z"
       fill="#e0e0e0"
       id="path1363-5"
       style="fill:#ffe345;fill-opacity:1;stroke-width:0.264583"
       inkscape:export-filename="C:\Users\lsl\Repositories\exampler\addons\scaffolder\assets\images\editor_icons\scaffolder_node.png"
       inkscape:export-xdpi="192"
       inkscape:export-ydpi="192" />
  </g>
</svg>
