<?xml version="1.0" encoding="UTF-8" standalone="no"?>
<!-- Created with Inkscape (http://www.inkscape.org/) -->

<svg
   xmlns:dc="http://purl.org/dc/elements/1.1/"
   xmlns:cc="http://creativecommons.org/ns#"
   xmlns:rdf="http://www.w3.org/1999/02/22-rdf-syntax-ns#"
   xmlns:svg="http://www.w3.org/2000/svg"
   xmlns="http://www.w3.org/2000/svg"
   xmlns:sodipodi="http://sodipodi.sourceforge.net/DTD/sodipodi-0.dtd"
   xmlns:inkscape="http://www.inkscape.org/namespaces/inkscape"
   width="257"
   height="256"
   viewBox="0 0 82.892697 58.382942"
   version="1.1"
   id="svg8"
   inkscape:version="0.92.4 (5da689c313, 2019-01-14)"
   sodipodi:docname="icons.svg">
  <defs
     id="defs2">
    <filter
       inkscape:collect="always"
       style="color-interpolation-filters:sRGB"
       id="filter1610"
       x="-0.19007498"
       width="1.38015"
       y="-0.18441071"
       height="1.3688214">
      <feGaussianBlur
         inkscape:collect="always"
         stdDeviation="2.3259937"
         id="feGaussianBlur1612" />
    </filter>
    <filter
       inkscape:collect="always"
       style="color-interpolation-filters:sRGB"
       id="filter1610-5"
       x="-0.19007498"
       width="1.38015"
       y="-0.18441071"
       height="1.3688214">
      <feGaussianBlur
         inkscape:collect="always"
         stdDeviation="2.3259937"
         id="feGaussianBlur1612-8" />
    </filter>
    <filter
       inkscape:collect="always"
       style="color-interpolation-filters:sRGB"
       id="filter1610-5-6"
       x="-0.19007498"
       width="1.38015"
       y="-0.18441071"
       height="1.3688214">
      <feGaussianBlur
         inkscape:collect="always"
         stdDeviation="2.3259937"
         id="feGaussianBlur1612-8-7" />
    </filter>
    <filter
       inkscape:collect="always"
       style="color-interpolation-filters:sRGB"
       id="filter1610-8"
       x="-0.19007498"
       width="1.38015"
       y="-0.18441071"
       height="1.3688214">
      <feGaussianBlur
         inkscape:collect="always"
         stdDeviation="2.3259937"
         id="feGaussianBlur1612-9" />
    </filter>
    <filter
       inkscape:collect="always"
       style="color-interpolation-filters:sRGB"
       id="filter1860"
       x="-0.15840001"
       width="1.3168"
       y="-0.15839999"
       height="1.3168">
      <feGaussianBlur
         inkscape:collect="always"
         stdDeviation="2.0788276"
         id="feGaussianBlur1862" />
    </filter>
    <filter
       inkscape:collect="always"
       style="color-interpolation-filters:sRGB"
       id="filter1860-5"
       x="-0.15840001"
       width="1.3168"
       y="-0.15839998"
       height="1.3168">
      <feGaussianBlur
         inkscape:collect="always"
         stdDeviation="2.0788276"
         id="feGaussianBlur1862-6" />
    </filter>
    <filter
       inkscape:collect="always"
       style="color-interpolation-filters:sRGB"
       id="filter1993"
       x="-0.14640002"
       width="1.2928"
       y="-0.14639998"
       height="1.2928">
      <feGaussianBlur
         inkscape:collect="always"
         stdDeviation="1.9213405"
         id="feGaussianBlur1995" />
    </filter>
    <filter
       inkscape:collect="always"
       style="color-interpolation-filters:sRGB"
       id="filter2005"
       x="-0.14640002"
       width="1.2928"
       y="-0.14639998"
       height="1.2928">
      <feGaussianBlur
         inkscape:collect="always"
         stdDeviation="1.9213405"
         id="feGaussianBlur2007" />
    </filter>
  </defs>
  <sodipodi:namedview
     id="base"
     pagecolor="#ffffff"
     bordercolor="#666666"
     borderopacity="1.0"
     inkscape:pageopacity="0.0"
     inkscape:pageshadow="2"
     inkscape:zoom="1.4"
     inkscape:cx="609.0722"
     inkscape:cy="-190.63519"
     inkscape:document-units="px"
     inkscape:current-layer="layer1"
     showgrid="false"
     units="px"
     inkscape:window-width="3840"
     inkscape:window-height="2035"
     inkscape:window-x="3827"
     inkscape:window-y="-13"
     inkscape:window-maximized="1"
     inkscape:snap-global="false" />
  <metadata
     id="metadata5">
    <rdf:RDF>
      <cc:Work
         rdf:about="">
        <dc:format>image/svg+xml</dc:format>
        <dc:type
           rdf:resource="http://purl.org/dc/dcmitype/StillImage" />
        <dc:title />
      </cc:Work>
    </rdf:RDF>
  </metadata>
  <g
     inkscape:groupmode="layer"
     id="layer2"
     inkscape:label="background"
     sodipodi:insensitive="true">
    <rect
       style="opacity:1;vector-effect:none;fill:#999999;fill-opacity:1;stroke:none;stroke-width:1.32858777;stroke-linecap:butt;stroke-linejoin:miter;stroke-miterlimit:4;stroke-dasharray:none;stroke-dashoffset:0;stroke-opacity:1"
       id="rect1156"
       width="330.28064"
       height="330.28064"
       x="-124.99918"
       y="-126.70695" />
  </g>
  <g
     inkscape:label="Layer 1"
     inkscape:groupmode="layer"
     id="layer1"
     transform="translate(0,-279.48697)">
    <rect
       style="opacity:1;vector-effect:none;fill:#646464;fill-opacity:0;stroke:none;stroke-width:0.41249505;stroke-linecap:butt;stroke-linejoin:miter;stroke-miterlimit:4;stroke-dasharray:none;stroke-dashoffset:0;stroke-opacity:1"
       id="rect910-2-9"
       width="45.793217"
       height="45.793217"
       x="335.40042"
       y="328.58987"
       inkscape:export-filename="C:\Users\lsl\x-active.png"
       inkscape:export-xdpi="54.09"
       inkscape:export-ydpi="54.09" />
    <rect
       style="opacity:1;vector-effect:none;fill:#646464;fill-opacity:0;stroke:none;stroke-width:0.41249505;stroke-linecap:butt;stroke-linejoin:miter;stroke-miterlimit:4;stroke-dasharray:none;stroke-dashoffset:0;stroke-opacity:1"
       id="rect910-2-5"
       width="45.793217"
       height="45.793217"
       x="277.49554"
       y="328.58987"
       inkscape:export-filename="C:\Users\lsl\x-hover.png"
       inkscape:export-xdpi="54.09"
       inkscape:export-ydpi="54.09" />
    <rect
       style="opacity:1;vector-effect:none;fill:#646464;fill-opacity:0;stroke:none;stroke-width:0.41249505;stroke-linecap:butt;stroke-linejoin:miter;stroke-miterlimit:4;stroke-dasharray:none;stroke-dashoffset:0;stroke-opacity:1"
       id="rect910-2-58"
       width="45.793217"
       height="45.793217"
       x="220.72241"
       y="328.58987"
       inkscape:export-filename="C:\Users\lsl\x-normal.png"
       inkscape:export-xdpi="54.09"
       inkscape:export-ydpi="54.09" />
    <rect
       style="opacity:1;vector-effect:none;fill:#646464;fill-opacity:0;stroke:none;stroke-width:0.41249502;stroke-linecap:butt;stroke-linejoin:miter;stroke-miterlimit:4;stroke-dasharray:none;stroke-dashoffset:0;stroke-opacity:1"
       id="rect910"
       width="45.793217"
       height="45.793217"
       x="224.32314"
       y="273.13651"
       inkscape:export-filename="C:\Users\lsl\gear-normal.png"
       inkscape:export-xdpi="54.09"
       inkscape:export-ydpi="54.09" />
    <rect
       style="opacity:1;vector-effect:none;fill:#646464;fill-opacity:0;stroke:none;stroke-width:0.41249505;stroke-linecap:butt;stroke-linejoin:miter;stroke-miterlimit:4;stroke-dasharray:none;stroke-dashoffset:0;stroke-opacity:1"
       id="rect910-4"
       width="45.793217"
       height="45.793217"
       x="276.5267"
       y="274.1221"
       inkscape:export-filename="C:\Users\lsl\gear-hover.png"
       inkscape:export-xdpi="54.09"
       inkscape:export-ydpi="54.09" />
    <rect
       style="opacity:1;vector-effect:none;fill:#646464;fill-opacity:0;stroke:none;stroke-width:0.41249505;stroke-linecap:butt;stroke-linejoin:miter;stroke-miterlimit:4;stroke-dasharray:none;stroke-dashoffset:0;stroke-opacity:1"
       id="rect910-2"
       width="45.793217"
       height="45.793217"
       x="334.19583"
       y="272.0043"
       inkscape:export-filename="C:\Users\lsl\gear-active.png"
       inkscape:export-xdpi="54.09"
       inkscape:export-ydpi="54.09" />
    <rect
       style="opacity:1;vector-effect:none;fill:#26ffd9;fill-opacity:0.4484305;stroke:none;stroke-width:0.36571434;stroke-linecap:butt;stroke-linejoin:miter;stroke-miterlimit:4;stroke-dasharray:none;stroke-dashoffset:0;stroke-opacity:1"
       id="rect819-3"
       width="6.3068027"
       height="6.3068027"
       x="-30.277443"
       y="-312.31735"
       transform="scale(-1)" />
    <rect
       style="opacity:1;vector-effect:none;fill:#26ffd9;fill-opacity:0.4484305;stroke:none;stroke-width:0.36571434;stroke-linecap:butt;stroke-linejoin:miter;stroke-miterlimit:4;stroke-dasharray:none;stroke-dashoffset:0;stroke-opacity:1"
       id="rect819"
       width="6.3068027"
       height="6.3068027"
       x="23.97064"
       y="282.04587" />
    <rect
       style="opacity:1;vector-effect:none;fill:#26ffd9;fill-opacity:0.4484305;stroke:none;stroke-width:0.36571434;stroke-linecap:butt;stroke-linejoin:miter;stroke-miterlimit:4;stroke-dasharray:none;stroke-dashoffset:0;stroke-opacity:1"
       id="rect819-3-2"
       width="6.3068027"
       height="6.3068027"
       x="240.65138"
       y="-187.21667"
       transform="rotate(120)" />
    <rect
       style="opacity:1;vector-effect:none;fill:#26ffd9;fill-opacity:0.4484305;stroke:none;stroke-width:0.36571434;stroke-linecap:butt;stroke-linejoin:miter;stroke-miterlimit:4;stroke-dasharray:none;stroke-dashoffset:0;stroke-opacity:1"
       id="rect819-3-2-6"
       width="6.3068027"
       height="6.3068027"
       x="267.77545"
       y="109.96494"
       transform="rotate(60)" />
    <rect
       style="opacity:1;vector-effect:none;fill:#26ffd9;fill-opacity:0.4484305;stroke:none;stroke-width:0.36571434;stroke-linecap:butt;stroke-linejoin:miter;stroke-miterlimit:4;stroke-dasharray:none;stroke-dashoffset:0;stroke-opacity:1"
       id="rect819-3-2-4"
       width="6.3068027"
       height="6.3068027"
       x="-246.95819"
       y="156.94513"
       transform="rotate(-60)" />
    <rect
       style="opacity:1;vector-effect:none;fill:#26ffd9;fill-opacity:0.4484305;stroke:none;stroke-width:0.36571434;stroke-linecap:butt;stroke-linejoin:miter;stroke-miterlimit:4;stroke-dasharray:none;stroke-dashoffset:0;stroke-opacity:1"
       id="rect819-3-2-6-3"
       width="6.3068027"
       height="6.3068027"
       x="-274.08221"
       y="-140.23645"
       transform="rotate(-120)" />
    <circle
       style="opacity:1;vector-effect:none;fill:#26ffd9;fill-opacity:0.4484305;stroke:none;stroke-width:0.36571434;stroke-linecap:butt;stroke-linejoin:miter;stroke-miterlimit:4;stroke-dasharray:none;stroke-dashoffset:0;stroke-opacity:1"
       id="path815"
       cx="27.124043"
       cy="297.18161"
       r="10.996233" />
    <circle
       style="opacity:1;vector-effect:none;fill:#26ffd9;fill-opacity:0.4484305;stroke:none;stroke-width:0.21630155;stroke-linecap:butt;stroke-linejoin:miter;stroke-miterlimit:4;stroke-dasharray:none;stroke-dashoffset:0;stroke-opacity:1"
       id="path815-7"
       cx="27.124043"
       cy="297.18161"
       r="6.5037165" />
    <path
       inkscape:connector-curvature="0"
       style="opacity:1;vector-effect:none;fill:#ffffff;fill-opacity:1;stroke:none;stroke-width:0.36571434;stroke-linecap:butt;stroke-linejoin:miter;stroke-miterlimit:4;stroke-dasharray:none;stroke-dashoffset:0;stroke-opacity:1"
       d="m 57.610502,281.4358 v 4.61068 a 10.996233,10.996233 0 0 0 -4.386414,2.53055 l -3.991429,-2.30439 -3.152951,5.46175 3.995842,2.30692 a 10.996233,10.996233 0 0 0 -0.307423,2.53055 10.996233,10.996233 0 0 0 0.308051,2.52929 l -3.99647,2.30754 3.152951,5.46176 3.9971,-2.30755 a 10.996233,10.996233 0 0 0 4.380743,2.53875 v 4.60563 h 6.307163 v -4.61068 a 10.996233,10.996233 0 0 0 4.386414,-2.53054 l 3.991428,2.30439 3.153584,-5.46176 -3.995841,-2.30691 a 10.996233,10.996233 0 0 0 0.307423,-2.52992 10.996233,10.996233 0 0 0 -0.308681,-2.52992 l 3.997099,-2.30692 -3.153584,-5.46238 -3.997098,2.30817 a 10.996233,10.996233 0 0 0 -4.380744,-2.53874 v -4.60627 z m 3.153583,8.63235 a 6.5037165,6.5037165 0 0 1 6.503709,6.50371 6.5037165,6.5037165 0 0 1 -6.503709,6.50371 6.5037165,6.5037165 0 0 1 -6.503709,-6.50371 6.5037165,6.5037165 0 0 1 6.503709,-6.50371 z"
       id="rect819-3-24-6" />
    <path
       inkscape:connector-curvature="0"
       style="opacity:1;vector-effect:none;fill:#000000;fill-opacity:1;stroke:none;stroke-width:0.36571434;stroke-linecap:butt;stroke-linejoin:miter;stroke-miterlimit:4;stroke-dasharray:none;stroke-dashoffset:0;stroke-opacity:1;filter:url(#filter1610)"
       d="m 244.06585,280.89737 v 4.61068 a 10.996233,10.996233 0 0 0 -4.38641,2.53055 l -3.99143,-2.30439 -3.15295,5.46175 3.99584,2.30692 a 10.996233,10.996233 0 0 0 -0.30743,2.53055 10.996233,10.996233 0 0 0 0.30806,2.52929 l -3.99647,2.30754 3.15295,5.46176 3.9971,-2.30755 a 10.996233,10.996233 0 0 0 4.38074,2.53875 v 4.60563 h 6.30716 v -4.61068 a 10.996233,10.996233 0 0 0 4.38641,-2.53054 l 3.99143,2.30439 3.15358,-5.46176 -3.99584,-2.30691 a 10.996233,10.996233 0 0 0 0.30743,-2.52992 10.996233,10.996233 0 0 0 -0.30869,-2.52992 l 3.9971,-2.30692 -3.15358,-5.46238 -3.9971,2.30817 a 10.996233,10.996233 0 0 0 -4.38074,-2.53874 v -4.60627 z m 3.15358,8.63235 a 6.5037166,6.5037166 0 0 1 6.50371,6.50371 6.5037166,6.5037166 0 0 1 -6.50371,6.50371 6.5037166,6.5037166 0 0 1 -6.5037,-6.50371 6.5037166,6.5037166 0 0 1 6.5037,-6.50371 z"
       id="rect819-3-24-6-2"
       inkscape:export-filename="C:\Users\lsl\gear-normal.png"
       inkscape:export-xdpi="54.09"
       inkscape:export-ydpi="54.09" />
    <path
       inkscape:connector-curvature="0"
       style="opacity:1;vector-effect:none;fill:#ffffff;fill-opacity:1;stroke:none;stroke-width:0.36571434;stroke-linecap:butt;stroke-linejoin:miter;stroke-miterlimit:4;stroke-dasharray:none;stroke-dashoffset:0;stroke-opacity:1"
       d="m 244.06585,280.89737 v 4.61068 a 10.996233,10.996233 0 0 0 -4.38641,2.53055 l -3.99143,-2.30439 -3.15295,5.46175 3.99584,2.30692 a 10.996233,10.996233 0 0 0 -0.30743,2.53055 10.996233,10.996233 0 0 0 0.30806,2.52929 l -3.99647,2.30754 3.15295,5.46176 3.9971,-2.30755 a 10.996233,10.996233 0 0 0 4.38074,2.53875 v 4.60563 h 6.30716 v -4.61068 a 10.996233,10.996233 0 0 0 4.38641,-2.53054 l 3.99143,2.30439 3.15358,-5.46176 -3.99584,-2.30691 a 10.996233,10.996233 0 0 0 0.30742,-2.52992 10.996233,10.996233 0 0 0 -0.30868,-2.52992 l 3.9971,-2.30692 -3.15358,-5.46238 -3.9971,2.30817 a 10.996233,10.996233 0 0 0 -4.38074,-2.53874 v -4.60627 z m 3.15358,8.63235 a 6.5037165,6.5037165 0 0 1 6.50371,6.50371 6.5037165,6.5037165 0 0 1 -6.50371,6.50371 6.5037165,6.5037165 0 0 1 -6.5037,-6.50371 6.5037165,6.5037165 0 0 1 6.5037,-6.50371 z"
       id="rect819-3-24"
       inkscape:export-filename="C:\Users\lsl\gear-normal.png"
       inkscape:export-xdpi="54.09"
       inkscape:export-ydpi="54.09" />
    <path
       inkscape:connector-curvature="0"
       style="opacity:1;vector-effect:none;fill:#000000;fill-opacity:1;stroke:none;stroke-width:0.36571434;stroke-linecap:butt;stroke-linejoin:miter;stroke-miterlimit:4;stroke-dasharray:none;stroke-dashoffset:0;stroke-opacity:1;filter:url(#filter1610-5)"
       d="m 141.04207,281.93886 v 4.61068 a 10.996233,10.996233 0 0 0 -4.38641,2.53055 l -3.99143,-2.30439 -3.15295,5.46175 3.99584,2.30692 a 10.996233,10.996233 0 0 0 -0.30742,2.53055 10.996233,10.996233 0 0 0 0.30805,2.52929 l -3.99647,2.30754 3.15295,5.46176 3.9971,-2.30755 a 10.996233,10.996233 0 0 0 4.38074,2.53875 v 4.60563 h 6.30717 v -4.61068 a 10.996233,10.996233 0 0 0 4.38641,-2.53054 l 3.99143,2.30439 3.15358,-5.46176 -3.99584,-2.30691 a 10.996233,10.996233 0 0 0 0.30743,-2.52992 10.996233,10.996233 0 0 0 -0.30869,-2.52992 l 3.9971,-2.30692 -3.15358,-5.46238 -3.9971,2.30817 a 10.996233,10.996233 0 0 0 -4.38074,-2.53874 v -4.60627 z m 3.15359,8.63235 a 6.5037166,6.5037166 0 0 1 6.50371,6.50371 6.5037166,6.5037166 0 0 1 -6.50371,6.50371 6.5037166,6.5037166 0 0 1 -6.50371,-6.50371 6.5037166,6.5037166 0 0 1 6.50371,-6.50371 z"
       id="rect819-3-24-6-2-0"
       transform="matrix(1.1051492,0,0,1.1051492,140.06525,-31.293047)"
       inkscape:export-filename="C:\Users\lsl\gear-hover.png"
       inkscape:export-xdpi="54.09"
       inkscape:export-ydpi="54.09" />
    <path
       inkscape:connector-curvature="0"
       style="opacity:1;vector-effect:none;fill:#cccccc;fill-opacity:1;stroke:none;stroke-width:0.36571434;stroke-linecap:butt;stroke-linejoin:miter;stroke-miterlimit:4;stroke-dasharray:none;stroke-dashoffset:0;stroke-opacity:1"
       d="m 296.26941,281.88297 v 4.61068 a 10.996233,10.996233 0 0 0 -4.38641,2.53055 l -3.99143,-2.30439 -3.15295,5.46175 3.99584,2.30692 a 10.996233,10.996233 0 0 0 -0.30742,2.53055 10.996233,10.996233 0 0 0 0.30805,2.52929 l -3.99647,2.30754 3.15295,5.46176 3.9971,-2.30755 a 10.996233,10.996233 0 0 0 4.38074,2.53875 v 4.60563 h 6.30717 v -4.61068 a 10.996233,10.996233 0 0 0 4.38641,-2.53054 l 3.99143,2.30439 3.15358,-5.46176 -3.99584,-2.30691 a 10.996233,10.996233 0 0 0 0.30742,-2.52992 10.996233,10.996233 0 0 0 -0.30868,-2.52992 l 3.9971,-2.30692 -3.15358,-5.46238 -3.9971,2.30817 a 10.996233,10.996233 0 0 0 -4.38074,-2.53874 v -4.60627 z m 3.15359,8.63235 a 6.5037165,6.5037165 0 0 1 6.50371,6.50371 6.5037165,6.5037165 0 0 1 -6.50371,6.50371 6.5037165,6.5037165 0 0 1 -6.50371,-6.50371 6.5037165,6.5037165 0 0 1 6.50371,-6.50371 z"
       id="rect819-3-24-4"
       inkscape:export-filename="C:\Users\lsl\gear-hover.png"
       inkscape:export-xdpi="54.09"
       inkscape:export-ydpi="54.09" />
    <path
       inkscape:connector-curvature="0"
       style="opacity:1;vector-effect:none;fill:#646464;fill-opacity:1;stroke:none;stroke-width:0.36571434;stroke-linecap:butt;stroke-linejoin:miter;stroke-miterlimit:4;stroke-dasharray:none;stroke-dashoffset:0;stroke-opacity:1"
       d="m 353.93854,279.76517 v 4.61068 a 10.996233,10.996233 0 0 0 -4.38641,2.53055 l -3.99143,-2.30439 -3.15295,5.46175 3.99584,2.30692 a 10.996233,10.996233 0 0 0 -0.30742,2.53055 10.996233,10.996233 0 0 0 0.30805,2.52929 l -3.99647,2.30754 3.15295,5.46176 3.99711,-2.30755 a 10.996233,10.996233 0 0 0 4.38074,2.53875 v 4.60563 h 6.30716 v -4.61068 a 10.996233,10.996233 0 0 0 4.38641,-2.53054 l 3.99143,2.30439 3.15358,-5.46176 -3.99584,-2.30691 a 10.996233,10.996233 0 0 0 0.30742,-2.52992 10.996233,10.996233 0 0 0 -0.30868,-2.52992 l 3.9971,-2.30692 -3.15358,-5.46238 -3.9971,2.30817 a 10.996233,10.996233 0 0 0 -4.38074,-2.53874 v -4.60627 z m 3.15359,8.63235 a 6.5037165,6.5037165 0 0 1 6.50371,6.50371 6.5037165,6.5037165 0 0 1 -6.50371,6.50371 6.5037165,6.5037165 0 0 1 -6.5037,-6.50371 6.5037165,6.5037165 0 0 1 6.5037,-6.50371 z"
       id="rect819-3-24-4-4"
       inkscape:export-filename="C:\Users\lsl\gear-active.png"
       inkscape:export-xdpi="54.09"
       inkscape:export-ydpi="54.09" />
    <rect
       style="opacity:1;vector-effect:none;fill:#26ffd9;fill-opacity:0.4484305;stroke:none;stroke-width:0.90048611;stroke-linecap:butt;stroke-linejoin:miter;stroke-miterlimit:4;stroke-dasharray:none;stroke-dashoffset:0;stroke-opacity:1"
       id="rect819-0-3"
       width="6.3068027"
       height="38.236603"
       x="-233.1778"
       y="237.44055"
       transform="rotate(-45)" />
    <rect
       style="opacity:1;vector-effect:none;fill:#26ffd9;fill-opacity:0.4484305;stroke:none;stroke-width:0.90048611;stroke-linecap:butt;stroke-linejoin:miter;stroke-miterlimit:4;stroke-dasharray:none;stroke-dashoffset:0;stroke-opacity:1"
       id="rect819-0-3-5"
       width="6.3068027"
       height="38.236603"
       x="-259.71225"
       y="-249.1427"
       transform="rotate(-135)" />
    <path
       style="opacity:1;vector-effect:none;fill:#ffffff;fill-opacity:1;stroke:none;stroke-width:0.90048611;stroke-linecap:butt;stroke-linejoin:miter;stroke-miterlimit:4;stroke-dasharray:none;stroke-dashoffset:0;stroke-opacity:1"
       d="m 45.594367,328.11397 -4.460118,4.46012 11.288889,11.28889 -11.288889,11.28889 4.460118,4.45949 11.288889,-11.28889 11.288888,11.28889 4.459489,-4.45949 -11.288889,-11.28889 11.288889,-11.28889 -4.459489,-4.46012 -11.288888,11.28889 z"
       id="rect819-0-3-7"
       inkscape:connector-curvature="0" />
    <path
       inkscape:connector-curvature="0"
       style="opacity:1;vector-effect:none;fill:#000000;fill-opacity:1;stroke:none;stroke-width:0.90048611;stroke-linecap:butt;stroke-linejoin:miter;stroke-miterlimit:4;stroke-dasharray:none;stroke-dashoffset:0;stroke-opacity:1;filter:url(#filter1860)"
       d="m 87.034479,328.40607 -4.460116,4.46012 11.288886,11.28889 -11.288886,11.28889 4.460116,4.45949 11.28889,-11.28889 11.288891,11.28889 4.45949,-4.45949 -11.28889,-11.28889 11.28889,-11.28889 -4.45949,-4.46012 -11.288891,11.28889 z"
       id="rect819-0-3-7-6-0" />
    <path
       inkscape:connector-curvature="0"
       style="opacity:1;vector-effect:none;fill:#ffffff;fill-opacity:1;stroke:none;stroke-width:0.90048611;stroke-linecap:butt;stroke-linejoin:miter;stroke-miterlimit:4;stroke-dasharray:none;stroke-dashoffset:0;stroke-opacity:1"
       d="m 87.034479,328.40607 -4.460116,4.46012 11.288886,11.28889 -11.288886,11.28889 4.460116,4.45949 11.28889,-11.28889 11.288891,11.28889 4.45949,-4.45949 -11.28889,-11.28889 11.28889,-11.28889 -4.45949,-4.46012 -11.288891,11.28889 z"
       id="rect819-0-3-7-6" />
    <path
       inkscape:connector-curvature="0"
       style="opacity:1;vector-effect:none;fill:#000000;fill-opacity:1;stroke:none;stroke-width:0.36571434;stroke-linecap:butt;stroke-linejoin:miter;stroke-miterlimit:4;stroke-dasharray:none;stroke-dashoffset:0;stroke-opacity:1;filter:url(#filter1610-8)"
       d="m 97.907294,282.00546 v 4.61068 a 10.996233,10.996233 0 0 0 -4.38641,2.53055 l -3.99143,-2.30439 -3.15295,5.46175 3.99584,2.30692 a 10.996233,10.996233 0 0 0 -0.30743,2.53055 10.996233,10.996233 0 0 0 0.30806,2.52929 l -3.99647,2.30754 3.15295,5.46176 3.9971,-2.30755 a 10.996233,10.996233 0 0 0 4.38074,2.53875 v 4.60563 h 6.307156 v -4.61068 a 10.996233,10.996233 0 0 0 4.38641,-2.53054 l 3.99143,2.30439 3.15358,-5.46176 -3.99584,-2.30691 a 10.996233,10.996233 0 0 0 0.30743,-2.52992 10.996233,10.996233 0 0 0 -0.30869,-2.52992 l 3.9971,-2.30692 -3.15358,-5.46238 -3.9971,2.30817 a 10.996233,10.996233 0 0 0 -4.38074,-2.53874 v -4.60627 z m 3.153576,8.63235 a 6.5037167,6.5037167 0 0 1 6.50371,6.50371 6.5037167,6.5037167 0 0 1 -6.50371,6.50371 6.5037167,6.5037167 0 0 1 -6.503696,-6.50371 6.5037167,6.5037167 0 0 1 6.503696,-6.50371 z"
       id="rect819-3-24-6-2-6"
       inkscape:export-filename="C:\Users\lsl\gear-normal.png"
       inkscape:export-xdpi="54.09"
       inkscape:export-ydpi="54.09" />
    <path
       inkscape:connector-curvature="0"
       style="opacity:1;vector-effect:none;fill:#ffffff;fill-opacity:1;stroke:none;stroke-width:0.36571434;stroke-linecap:butt;stroke-linejoin:miter;stroke-miterlimit:4;stroke-dasharray:none;stroke-dashoffset:0;stroke-opacity:1"
       d="m 97.907293,282.00545 v 4.61069 a 10.996233,10.996233 0 0 0 -4.38641,2.53055 l -3.991431,-2.30439 -3.152949,5.46175 3.995839,2.30692 a 10.996233,10.996233 0 0 0 -0.30743,2.53055 10.996233,10.996233 0 0 0 0.308061,2.52929 l -3.99647,2.30754 3.152949,5.46176 3.997101,-2.30755 a 10.996233,10.996233 0 0 0 4.38074,2.53875 v 4.60562 h 6.307157 v -4.61067 a 10.996233,10.996233 0 0 0 4.38641,-2.53054 l 3.99143,2.30439 3.15358,-5.46176 -3.99584,-2.30691 a 10.996233,10.996233 0 0 0 0.30742,-2.52992 10.996233,10.996233 0 0 0 -0.30868,-2.52992 l 3.9971,-2.30692 -3.15358,-5.46238 -3.9971,2.30817 a 10.996233,10.996233 0 0 0 -4.38074,-2.53874 v -4.60628 z m 3.153577,8.63235 a 6.5037165,6.5037165 0 0 1 6.50371,6.50372 6.5037165,6.5037165 0 0 1 -6.50371,6.50371 6.5037165,6.5037165 0 0 1 -6.503698,-6.50371 6.5037165,6.5037165 0 0 1 6.503698,-6.50372 z"
       id="rect819-3-24-5"
       inkscape:export-filename="C:\Users\lsl\gear-normal.png"
       inkscape:export-xdpi="54.09"
       inkscape:export-ydpi="54.09" />
    <path
       inkscape:connector-curvature="0"
       style="opacity:1;vector-effect:none;fill:#000000;fill-opacity:1;stroke:none;stroke-width:0.36571434;stroke-linecap:butt;stroke-linejoin:miter;stroke-miterlimit:4;stroke-dasharray:none;stroke-dashoffset:0;stroke-opacity:1;filter:url(#filter1610-5-6)"
       d="m 141.04207,281.93886 v 4.61068 a 10.996233,10.996233 0 0 0 -4.38641,2.53055 l -3.99143,-2.30439 -3.15295,5.46175 3.99584,2.30692 a 10.996233,10.996233 0 0 0 -0.30742,2.53055 10.996233,10.996233 0 0 0 0.30805,2.52929 l -3.99647,2.30754 3.15295,5.46176 3.9971,-2.30755 a 10.996233,10.996233 0 0 0 4.38074,2.53875 v 4.60563 h 6.30717 v -4.61068 a 10.996233,10.996233 0 0 0 4.38641,-2.53054 l 3.99143,2.30439 3.15358,-5.46176 -3.99584,-2.30691 a 10.996233,10.996233 0 0 0 0.30743,-2.52992 10.996233,10.996233 0 0 0 -0.30869,-2.52992 l 3.9971,-2.30692 -3.15358,-5.46238 -3.9971,2.30817 a 10.996233,10.996233 0 0 0 -4.38074,-2.53874 v -4.60627 z m 3.15359,8.63235 a 6.5037166,6.5037166 0 0 1 6.50371,6.50371 6.5037166,6.5037166 0 0 1 -6.50371,6.50371 6.5037166,6.5037166 0 0 1 -6.50371,-6.50371 6.5037166,6.5037166 0 0 1 6.50371,-6.50371 z"
       id="rect819-3-24-6-2-0-6"
       transform="matrix(1.1051492,0,0,1.1051492,-15.078342,-29.724199)"
       inkscape:export-filename="C:\Users\lsl\gear-hover.png"
       inkscape:export-xdpi="54.09"
       inkscape:export-ydpi="54.09" />
    <path
       inkscape:connector-curvature="0"
       style="opacity:1;vector-effect:none;fill:#cccccc;fill-opacity:1;stroke:none;stroke-width:0.36571434;stroke-linecap:butt;stroke-linejoin:miter;stroke-miterlimit:4;stroke-dasharray:none;stroke-dashoffset:0;stroke-opacity:1"
       d="m 141.12583,283.45182 v 4.61069 a 10.996233,10.996233 0 0 0 -4.38641,2.53054 l -3.99143,-2.30438 -3.15295,5.46175 3.99584,2.30692 a 10.996233,10.996233 0 0 0 -0.30742,2.53055 10.996233,10.996233 0 0 0 0.30805,2.52929 l -3.99647,2.30754 3.15295,5.46175 3.9971,-2.30754 a 10.996233,10.996233 0 0 0 4.38074,2.53874 v 4.60564 h 6.30717 v -4.61068 a 10.996233,10.996233 0 0 0 4.38641,-2.53054 l 3.99143,2.30438 3.15358,-5.46175 -3.99584,-2.30691 a 10.996233,10.996233 0 0 0 0.30742,-2.52992 10.996233,10.996233 0 0 0 -0.30868,-2.52992 l 3.9971,-2.30692 -3.15358,-5.46238 -3.9971,2.30817 A 10.996233,10.996233 0 0 0 147.433,288.0581 v -4.60628 z m 3.15359,8.63236 a 6.5037165,6.5037165 0 0 1 6.50371,6.50371 6.5037165,6.5037165 0 0 1 -6.50371,6.50371 6.5037165,6.5037165 0 0 1 -6.50371,-6.50371 6.5037165,6.5037165 0 0 1 6.50371,-6.50371 z"
       id="rect819-3-24-4-9"
       inkscape:export-filename="C:\Users\lsl\gear-hover.png"
       inkscape:export-xdpi="54.09"
       inkscape:export-ydpi="54.09" />
    <path
       inkscape:connector-curvature="0"
       style="opacity:1;vector-effect:none;fill:#646464;fill-opacity:1;stroke:none;stroke-width:0.36571434;stroke-linecap:butt;stroke-linejoin:miter;stroke-miterlimit:4;stroke-dasharray:none;stroke-dashoffset:0;stroke-opacity:1"
       d="m 180.13372,283.52268 v 4.61069 a 10.996233,10.996233 0 0 0 -4.38641,2.53054 l -3.99142,-2.30438 -3.15296,5.46175 3.99584,2.30692 a 10.996233,10.996233 0 0 0 -0.30741,2.53055 10.996233,10.996233 0 0 0 0.30804,2.52929 l -3.99647,2.30754 3.15296,5.46176 3.9971,-2.30755 a 10.996233,10.996233 0 0 0 4.38074,2.53875 v 4.60563 h 6.30716 v -4.61068 a 10.996233,10.996233 0 0 0 4.38641,-2.53054 l 3.99143,2.30439 3.15358,-5.46176 -3.99583,-2.30691 a 10.996233,10.996233 0 0 0 0.30741,-2.52992 10.996233,10.996233 0 0 0 -0.30868,-2.52992 l 3.9971,-2.30692 -3.15358,-5.46238 -3.9971,2.30817 a 10.996233,10.996233 0 0 0 -4.38074,-2.53874 v -4.60628 z m 3.15359,8.63236 a 6.5037165,6.5037165 0 0 1 6.50371,6.50371 6.5037165,6.5037165 0 0 1 -6.50371,6.50371 6.5037165,6.5037165 0 0 1 -6.5037,-6.50371 6.5037165,6.5037165 0 0 1 6.5037,-6.50371 z"
       id="rect819-3-24-4-4-1"
       inkscape:export-filename="C:\Users\lsl\gear-active.png"
       inkscape:export-xdpi="54.09"
       inkscape:export-ydpi="54.09" />
    <path
       inkscape:connector-curvature="0"
       style="opacity:1;vector-effect:none;fill:#000000;fill-opacity:1;stroke:none;stroke-width:0.90048611;stroke-linecap:butt;stroke-linejoin:miter;stroke-miterlimit:4;stroke-dasharray:none;stroke-dashoffset:0;stroke-opacity:1;filter:url(#filter2005)"
       d="m 132.72993,327.9988 -4.46011,4.46012 11.28888,11.28889 -11.28888,11.28889 4.46011,4.45949 11.28889,-11.28889 11.28889,11.28889 4.45949,-4.45949 -11.28889,-11.28889 11.28889,-11.28889 -4.45949,-4.46012 -11.28889,11.28889 z"
       id="rect819-0-3-7-6-0-2"
       transform="matrix(1.1139052,0,0,1.1139052,-16.404464,-39.154643)" />
    <path
       inkscape:connector-curvature="0"
       style="opacity:1;vector-effect:none;fill:#cccccc;fill-opacity:1;stroke:none;stroke-width:0.90048611;stroke-linecap:butt;stroke-linejoin:miter;stroke-miterlimit:4;stroke-dasharray:none;stroke-dashoffset:0;stroke-opacity:1"
       d="m 132.72993,327.9988 -4.46011,4.46012 11.28888,11.28889 -11.28888,11.28889 4.46011,4.45949 11.28889,-11.28889 11.28889,11.28889 4.45949,-4.45949 -11.28889,-11.28889 11.28889,-11.28889 -4.45949,-4.46012 -11.28889,11.28889 z"
       id="rect819-0-3-7-6-7" />
    <path
       inkscape:connector-curvature="0"
       style="opacity:1;vector-effect:none;fill:#646464;fill-opacity:1;stroke:none;stroke-width:0.90048611;stroke-linecap:butt;stroke-linejoin:miter;stroke-miterlimit:4;stroke-dasharray:none;stroke-dashoffset:0;stroke-opacity:1"
       d="m 172.30776,327.20982 -4.46011,4.46012 11.28888,11.28889 -11.28888,11.28889 4.46011,4.45949 11.28889,-11.28889 11.2889,11.28889 4.45949,-4.45949 -11.28889,-11.28889 11.28889,-11.28889 -4.45949,-4.46012 -11.2889,11.28889 z"
       id="rect819-0-3-7-6-5" />
    <path
       inkscape:connector-curvature="0"
       style="opacity:1;vector-effect:none;fill:#000000;fill-opacity:1;stroke:none;stroke-width:0.90048611;stroke-linecap:butt;stroke-linejoin:miter;stroke-miterlimit:4;stroke-dasharray:none;stroke-dashoffset:0;stroke-opacity:1;filter:url(#filter1860-5)"
       d="m 232.33045,335.73778 -4.46012,4.46012 11.28889,11.28889 -11.28889,11.28889 4.46012,4.45949 11.28889,-11.28889 11.28889,11.28889 4.45949,-4.45949 -11.28889,-11.28889 11.28889,-11.28889 -4.45949,-4.46012 -11.28889,11.28889 z"
       id="rect819-0-3-7-6-0-8"
       inkscape:export-filename="C:\Users\lsl\x-normal.png"
       inkscape:export-xdpi="54.09"
       inkscape:export-ydpi="54.09" />
    <path
       inkscape:connector-curvature="0"
       style="opacity:1;vector-effect:none;fill:#ffffff;fill-opacity:1;stroke:none;stroke-width:0.90048611;stroke-linecap:butt;stroke-linejoin:miter;stroke-miterlimit:4;stroke-dasharray:none;stroke-dashoffset:0;stroke-opacity:1"
       d="m 232.33045,335.73777 -4.46012,4.46012 11.28889,11.28889 -11.28889,11.28889 4.46012,4.4595 11.28889,-11.2889 11.28889,11.2889 4.45949,-4.4595 -11.28889,-11.28889 11.28889,-11.28889 -4.45949,-4.46012 -11.28889,11.28889 z"
       id="rect819-0-3-7-6-4"
       inkscape:export-filename="C:\Users\lsl\x-normal.png"
       inkscape:export-xdpi="54.09"
       inkscape:export-ydpi="54.09" />
    <path
       inkscape:connector-curvature="0"
       style="opacity:1;vector-effect:none;fill:#000000;fill-opacity:1;stroke:none;stroke-width:0.90048611;stroke-linecap:butt;stroke-linejoin:miter;stroke-miterlimit:4;stroke-dasharray:none;stroke-dashoffset:0;stroke-opacity:1;filter:url(#filter1993)"
       d="m 132.72993,327.9988 -4.46011,4.46012 11.28888,11.28889 -11.28888,11.28889 4.46011,4.45949 11.28889,-11.28889 11.28889,11.28889 4.45949,-4.45949 -11.28889,-11.28889 11.28889,-11.28889 -4.45949,-4.46012 -11.28889,11.28889 z"
       id="rect819-0-3-7-6-0-2-8"
       transform="matrix(1.1139052,0,0,1.1139052,139.9692,-31.415654)"
       inkscape:export-filename="C:\Users\lsl\x-hover.png"
       inkscape:export-xdpi="54.09"
       inkscape:export-ydpi="54.09" />
    <path
       inkscape:connector-curvature="0"
       style="opacity:1;vector-effect:none;fill:#cccccc;fill-opacity:1;stroke:none;stroke-width:0.90048611;stroke-linecap:butt;stroke-linejoin:miter;stroke-miterlimit:4;stroke-dasharray:none;stroke-dashoffset:0;stroke-opacity:1"
       d="m 289.10359,335.73778 -4.46011,4.46012 11.28888,11.28889 -11.28888,11.28889 4.46011,4.45949 11.28889,-11.28889 11.28889,11.28889 4.45949,-4.45949 -11.28889,-11.28889 11.28889,-11.28889 -4.45949,-4.46012 -11.28889,11.28889 z"
       id="rect819-0-3-7-6-7-2"
       inkscape:export-filename="C:\Users\lsl\x-hover.png"
       inkscape:export-xdpi="54.09"
       inkscape:export-ydpi="54.09" />
    <path
       inkscape:connector-curvature="0"
       style="opacity:1;vector-effect:none;fill:#646464;fill-opacity:1;stroke:none;stroke-width:0.90048611;stroke-linecap:butt;stroke-linejoin:miter;stroke-miterlimit:4;stroke-dasharray:none;stroke-dashoffset:0;stroke-opacity:1"
       d="m 347.00847,335.73778 -4.46011,4.46012 11.28888,11.28889 -11.28888,11.28889 4.46011,4.45949 11.28889,-11.28889 11.2889,11.28889 4.45949,-4.45949 -11.2889,-11.28889 11.2889,-11.28889 -4.45949,-4.46012 -11.2889,11.28889 z"
       id="rect819-0-3-7-6-5-6"
       inkscape:export-filename="C:\Users\lsl\x-active.png"
       inkscape:export-xdpi="54.09"
       inkscape:export-ydpi="54.09" />
  </g>
</svg>
