<?xml version="1.0" encoding="UTF-8" standalone="no"?>
<!-- Created with Inkscape (http://www.inkscape.org/) -->

<svg
   xmlns:dc="http://purl.org/dc/elements/1.1/"
   xmlns:cc="http://creativecommons.org/ns#"
   xmlns:rdf="http://www.w3.org/1999/02/22-rdf-syntax-ns#"
   xmlns:svg="http://www.w3.org/2000/svg"
   xmlns="http://www.w3.org/2000/svg"
   xmlns:sodipodi="http://sodipodi.sourceforge.net/DTD/sodipodi-0.dtd"
   xmlns:inkscape="http://www.inkscape.org/namespaces/inkscape"
   width="128"
   height="128"
   viewBox="0 0 33.866666 33.866666"
   version="1.1"
   id="svg8"
   inkscape:version="0.92.4 (5da689c313, 2019-01-14)"
   sodipodi:docname="checkbox.svg">
  <defs
     id="defs2">
    <filter
       inkscape:collect="always"
       style="color-interpolation-filters:sRGB"
       id="filter4812"
       x="-0.048"
       width="1.096"
       y="-0.048"
       height="1.096">
      <feGaussianBlur
         inkscape:collect="always"
         stdDeviation="0.6773333"
         id="feGaussianBlur4814" />
    </filter>
    <clipPath
       clipPathUnits="userSpaceOnUse"
       id="clipPath4849">
      <path
         style="opacity:1;vector-effect:none;fill:#020203;fill-opacity:1;stroke:none;stroke-width:65.48918915;stroke-linecap:round;stroke-linejoin:round;stroke-miterlimit:4;stroke-dasharray:none;stroke-dashoffset:0;stroke-opacity:1"
         d="m 2.6310878,261.50798 c -2.35817996,0 -4.2564447,1.99358 -4.2564447,4.47019 v 28.17701 c 0,2.4766 1.89826474,4.47018 4.2564447,4.47018 H 31.23558 c 2.358178,0 4.256444,-1.99358 4.256444,-4.47018 v -28.17701 c 0,-2.47661 -1.898266,-4.47019 -4.256444,-4.47019 z m 2.7388363,1.84307 H 28.496743 c 2.854225,0 5.152216,2.29799 5.152216,5.15221 v 23.12682 c 0,2.85423 -2.297991,5.15222 -5.152216,5.15222 H 5.3699241 c -2.8542245,0 -5.15221596,-2.29799 -5.15221596,-5.15222 v -23.12682 c 0,-2.85422 2.29799146,-5.15221 5.15221596,-5.15221 z"
         id="path4851"
         inkscape:connector-curvature="0" />
    </clipPath>
    <clipPath
       clipPathUnits="userSpaceOnUse"
       id="clipPath4849-7">
      <path
         style="opacity:1;vector-effect:none;fill:#020203;fill-opacity:1;stroke:none;stroke-width:65.48918915;stroke-linecap:round;stroke-linejoin:round;stroke-miterlimit:4;stroke-dasharray:none;stroke-dashoffset:0;stroke-opacity:1"
         d="m 2.6310878,261.50798 c -2.35817996,0 -4.2564447,1.99358 -4.2564447,4.47019 v 28.17701 c 0,2.4766 1.89826474,4.47018 4.2564447,4.47018 H 31.23558 c 2.358178,0 4.256444,-1.99358 4.256444,-4.47018 v -28.17701 c 0,-2.47661 -1.898266,-4.47019 -4.256444,-4.47019 z m 2.7388363,1.84307 H 28.496743 c 2.854225,0 5.152216,2.29799 5.152216,5.15221 v 23.12682 c 0,2.85423 -2.297991,5.15222 -5.152216,5.15222 H 5.3699241 c -2.8542245,0 -5.15221596,-2.29799 -5.15221596,-5.15222 v -23.12682 c 0,-2.85422 2.29799146,-5.15221 5.15221596,-5.15221 z"
         id="path4851-9"
         inkscape:connector-curvature="0" />
    </clipPath>
    <filter
       inkscape:collect="always"
       style="color-interpolation-filters:sRGB"
       id="filter4812-4"
       x="-0.048"
       width="1.096"
       y="-0.048"
       height="1.096">
      <feGaussianBlur
         inkscape:collect="always"
         stdDeviation="0.6773333"
         id="feGaussianBlur4814-3" />
    </filter>
    <clipPath
       clipPathUnits="userSpaceOnUse"
       id="clipPath4849-7-9">
      <path
         style="opacity:1;vector-effect:none;fill:#020203;fill-opacity:1;stroke:none;stroke-width:65.48918915;stroke-linecap:round;stroke-linejoin:round;stroke-miterlimit:4;stroke-dasharray:none;stroke-dashoffset:0;stroke-opacity:1"
         d="m 2.6310878,261.50798 c -2.35817996,0 -4.2564447,1.99358 -4.2564447,4.47019 v 28.17701 c 0,2.4766 1.89826474,4.47018 4.2564447,4.47018 H 31.23558 c 2.358178,0 4.256444,-1.99358 4.256444,-4.47018 v -28.17701 c 0,-2.47661 -1.898266,-4.47019 -4.256444,-4.47019 z m 2.7388363,1.84307 H 28.496743 c 2.854225,0 5.152216,2.29799 5.152216,5.15221 v 23.12682 c 0,2.85423 -2.297991,5.15222 -5.152216,5.15222 H 5.3699241 c -2.8542245,0 -5.15221596,-2.29799 -5.15221596,-5.15222 v -23.12682 c 0,-2.85422 2.29799146,-5.15221 5.15221596,-5.15221 z"
         id="path4851-9-8"
         inkscape:connector-curvature="0" />
    </clipPath>
    <filter
       inkscape:collect="always"
       style="color-interpolation-filters:sRGB"
       id="filter4812-4-6"
       x="-0.048"
       width="1.096"
       y="-0.048"
       height="1.096">
      <feGaussianBlur
         inkscape:collect="always"
         stdDeviation="0.6773333"
         id="feGaussianBlur4814-3-4" />
    </filter>
    <clipPath
       clipPathUnits="userSpaceOnUse"
       id="clipPath4849-7-9-0">
      <path
         style="opacity:1;vector-effect:none;fill:#020203;fill-opacity:1;stroke:none;stroke-width:65.48918915;stroke-linecap:round;stroke-linejoin:round;stroke-miterlimit:4;stroke-dasharray:none;stroke-dashoffset:0;stroke-opacity:1"
         d="m 2.6310878,261.50798 c -2.35817996,0 -4.2564447,1.99358 -4.2564447,4.47019 v 28.17701 c 0,2.4766 1.89826474,4.47018 4.2564447,4.47018 H 31.23558 c 2.358178,0 4.256444,-1.99358 4.256444,-4.47018 v -28.17701 c 0,-2.47661 -1.898266,-4.47019 -4.256444,-4.47019 z m 2.7388363,1.84307 H 28.496743 c 2.854225,0 5.152216,2.29799 5.152216,5.15221 v 23.12682 c 0,2.85423 -2.297991,5.15222 -5.152216,5.15222 H 5.3699241 c -2.8542245,0 -5.15221596,-2.29799 -5.15221596,-5.15222 v -23.12682 c 0,-2.85422 2.29799146,-5.15221 5.15221596,-5.15221 z"
         id="path4851-9-8-4"
         inkscape:connector-curvature="0" />
    </clipPath>
    <filter
       inkscape:collect="always"
       style="color-interpolation-filters:sRGB"
       id="filter4812-4-6-8"
       x="-0.048"
       width="1.096"
       y="-0.048"
       height="1.096">
      <feGaussianBlur
         inkscape:collect="always"
         stdDeviation="0.6773333"
         id="feGaussianBlur4814-3-4-7" />
    </filter>
    <clipPath
       clipPathUnits="userSpaceOnUse"
       id="clipPath4849-7-3">
      <path
         style="opacity:1;vector-effect:none;fill:#020203;fill-opacity:1;stroke:none;stroke-width:65.48918915;stroke-linecap:round;stroke-linejoin:round;stroke-miterlimit:4;stroke-dasharray:none;stroke-dashoffset:0;stroke-opacity:1"
         d="m 2.6310878,261.50798 c -2.35817996,0 -4.2564447,1.99358 -4.2564447,4.47019 v 28.17701 c 0,2.4766 1.89826474,4.47018 4.2564447,4.47018 H 31.23558 c 2.358178,0 4.256444,-1.99358 4.256444,-4.47018 v -28.17701 c 0,-2.47661 -1.898266,-4.47019 -4.256444,-4.47019 z m 2.7388363,1.84307 H 28.496743 c 2.854225,0 5.152216,2.29799 5.152216,5.15221 v 23.12682 c 0,2.85423 -2.297991,5.15222 -5.152216,5.15222 H 5.3699241 c -2.8542245,0 -5.15221596,-2.29799 -5.15221596,-5.15222 v -23.12682 c 0,-2.85422 2.29799146,-5.15221 5.15221596,-5.15221 z"
         id="path4851-9-3"
         inkscape:connector-curvature="0" />
    </clipPath>
    <filter
       inkscape:collect="always"
       style="color-interpolation-filters:sRGB"
       id="filter4812-4-7"
       x="-0.048"
       width="1.096"
       y="-0.048"
       height="1.096">
      <feGaussianBlur
         inkscape:collect="always"
         stdDeviation="0.6773333"
         id="feGaussianBlur4814-3-8" />
    </filter>
  </defs>
  <sodipodi:namedview
     id="base"
     pagecolor="#ffffff"
     bordercolor="#666666"
     borderopacity="1.0"
     inkscape:pageopacity="0.0"
     inkscape:pageshadow="2"
     inkscape:zoom="1.5439453"
     inkscape:cx="-152.52844"
     inkscape:cy="-429.55686"
     inkscape:document-units="px"
     inkscape:current-layer="layer1"
     showgrid="false"
     inkscape:window-width="3840"
     inkscape:window-height="2035"
     inkscape:window-x="3827"
     inkscape:window-y="-13"
     inkscape:window-maximized="1"
     units="px" />
  <metadata
     id="metadata5">
    <rdf:RDF>
      <cc:Work
         rdf:about="">
        <dc:format>image/svg+xml</dc:format>
        <dc:type
           rdf:resource="http://purl.org/dc/dcmitype/StillImage" />
        <dc:title></dc:title>
      </cc:Work>
    </rdf:RDF>
  </metadata>
  <g
     inkscape:label="Layer 1"
     inkscape:groupmode="layer"
     id="layer1"
     transform="translate(0,-263.13333)">
    <rect
       style="opacity:1;vector-effect:none;fill:#273149;fill-opacity:1;stroke:none;stroke-width:79.375;stroke-linecap:round;stroke-linejoin:round;stroke-miterlimit:4;stroke-dasharray:none;stroke-dashoffset:0;stroke-opacity:1"
       id="rect4853"
       width="103.43331"
       height="82.98719"
       x="-44.767643"
       y="233.05577"
       rx="5.2871685"
       ry="5.2871156" />
    <rect
       style="opacity:0.793;vector-effect:none;fill:#020203;fill-opacity:1;stroke:none;stroke-width:134.38841248;stroke-linecap:round;stroke-linejoin:round;stroke-miterlimit:4;stroke-dasharray:none;stroke-dashoffset:0;stroke-opacity:1;filter:url(#filter4812)"
       id="rect815-0-6"
       width="33.866665"
       height="33.866665"
       x="0"
       y="263.13333"
       rx="5.219131"
       ry="5.219131"
       transform="matrix(1.0130242,0,0,1.0130242,-0.22054361,-3.6476527)"
       clip-path="url(#clipPath4849)" />
    <rect
       style="opacity:1;vector-effect:none;fill:#202024;fill-opacity:1;stroke:none;stroke-width:16.79855156;stroke-linecap:round;stroke-linejoin:round;stroke-miterlimit:4;stroke-dasharray:none;stroke-dashoffset:0;stroke-opacity:1"
       id="rect815"
       width="4.2333331"
       height="4.2333331"
       x="41.38839"
       y="265.03265" />
    <rect
       style="opacity:1;vector-effect:none;fill:#5d6483;fill-opacity:1;stroke:none;stroke-width:16.79855156;stroke-linecap:round;stroke-linejoin:round;stroke-miterlimit:4;stroke-dasharray:none;stroke-dashoffset:0;stroke-opacity:1"
       id="rect815-3"
       width="4.2333331"
       height="4.2333331"
       x="41.38839"
       y="269.26599" />
    <rect
       style="opacity:1;vector-effect:none;fill:#202024;fill-opacity:1;stroke:none;stroke-width:16.79855156;stroke-linecap:round;stroke-linejoin:round;stroke-miterlimit:4;stroke-dasharray:none;stroke-dashoffset:0;stroke-opacity:1"
       id="rect815-3-0"
       width="4.2333331"
       height="4.2333331"
       x="41.38839"
       y="273.49933" />
    <rect
       style="opacity:1;vector-effect:none;fill:#202024;fill-opacity:1;stroke:none;stroke-width:16.79855156;stroke-linecap:round;stroke-linejoin:round;stroke-miterlimit:4;stroke-dasharray:none;stroke-dashoffset:0;stroke-opacity:1"
       id="rect815-3-0-9"
       width="4.2333331"
       height="4.2333331"
       x="41.38839"
       y="277.73267" />
    <rect
       style="opacity:0.439;vector-effect:none;fill:#c6c6c6;fill-opacity:1;stroke:none;stroke-width:134.38841248;stroke-linecap:round;stroke-linejoin:round;stroke-miterlimit:4;stroke-dasharray:none;stroke-dashoffset:0;stroke-opacity:1"
       id="rect815-0"
       width="33.866665"
       height="33.866665"
       x="0"
       y="263.13333"
       rx="5.219131"
       ry="5.219131" />
    <rect
       style="opacity:0.723;vector-effect:none;fill:#000000;fill-opacity:1;stroke:none;stroke-width:121.789505;stroke-linecap:round;stroke-linejoin:round;stroke-miterlimit:4;stroke-dasharray:none;stroke-dashoffset:0;stroke-opacity:1"
       id="rect815-0-7"
       width="30.691666"
       height="30.691666"
       x="1.5874996"
       y="264.72083"
       rx="4.7298379"
       ry="4.7298379" />
    <path
       inkscape:connector-curvature="0"
       style="opacity:1;vector-effect:none;fill:#ffffff;fill-opacity:1;stroke:none;stroke-width:134.38841248;stroke-linecap:round;stroke-linejoin:round;stroke-miterlimit:4;stroke-dasharray:none;stroke-dashoffset:0;stroke-opacity:1"
       d="m 27.692884,263.13333 -9.806638,15.1784 -4.867403,-7.35407 -4.4426226,2.94142 9.3642866,14.14746 14.522626,-22.47718 -3.768246,-2.435 c -0.01589,-1.4e-4 -0.03162,-0.001 -0.04754,-0.001 z"
       id="rect815-0-0" />
    <rect
       style="opacity:0.79299999;vector-effect:none;fill:#020203;fill-opacity:1;stroke:none;stroke-width:134.38841248;stroke-linecap:round;stroke-linejoin:round;stroke-miterlimit:4;stroke-dasharray:none;stroke-dashoffset:0;stroke-opacity:1;filter:url(#filter4812-4)"
       id="rect815-0-6-7"
       width="33.866665"
       height="33.866665"
       x="0"
       y="263.13333"
       rx="5.219131"
       ry="5.219131"
       transform="matrix(1.0130242,0,0,1.0130242,1.1779682,55.619014)"
       clip-path="url(#clipPath4849-7)"
       inkscape:export-filename="C:\Users\lsl\checkbox.png"
       inkscape:export-xdpi="86.470001"
       inkscape:export-ydpi="86.470001" />
    <rect
       style="opacity:0.43900003;vector-effect:none;fill:#c6c6c6;fill-opacity:1;stroke:none;stroke-width:134.38841248;stroke-linecap:round;stroke-linejoin:round;stroke-miterlimit:4;stroke-dasharray:none;stroke-dashoffset:0;stroke-opacity:1"
       id="rect815-0-4"
       width="33.866665"
       height="33.866665"
       x="1.3985122"
       y="322.39999"
       rx="5.219131"
       ry="5.219131"
       inkscape:export-filename="C:\Users\lsl\checkbox.png"
       inkscape:export-xdpi="86.470001"
       inkscape:export-ydpi="86.470001" />
    <rect
       style="opacity:0.7229996;vector-effect:none;fill:#000000;fill-opacity:1;stroke:none;stroke-width:121.789505;stroke-linecap:round;stroke-linejoin:round;stroke-miterlimit:4;stroke-dasharray:none;stroke-dashoffset:0;stroke-opacity:1"
       id="rect815-0-7-4"
       width="30.691666"
       height="30.691666"
       x="2.986012"
       y="323.98749"
       rx="4.7298379"
       ry="4.7298379"
       inkscape:export-filename="C:\Users\lsl\checkbox.png"
       inkscape:export-xdpi="86.470001"
       inkscape:export-ydpi="86.470001" />
    <path
       inkscape:connector-curvature="0"
       style="opacity:1;vector-effect:none;fill:#ffffff;fill-opacity:1;stroke:none;stroke-width:134.38841248;stroke-linecap:round;stroke-linejoin:round;stroke-miterlimit:4;stroke-dasharray:none;stroke-dashoffset:0;stroke-opacity:1"
       d="m 29.091395,322.40001 -9.806638,15.1784 -4.867403,-7.35407 -4.4426218,2.94142 9.3642858,14.14746 14.522627,-22.47718 -3.768246,-2.435 c -0.0159,-1.4e-4 -0.03162,-0.001 -0.04754,-0.001 z"
       id="rect815-0-0-3"
       inkscape:export-filename="C:\Users\lsl\checkbox.png"
       inkscape:export-xdpi="86.470001"
       inkscape:export-ydpi="86.470001" />
    <rect
       style="opacity:0.79299999;vector-effect:none;fill:#020203;fill-opacity:1;stroke:none;stroke-width:134.38841248;stroke-linecap:round;stroke-linejoin:round;stroke-miterlimit:4;stroke-dasharray:none;stroke-dashoffset:0;stroke-opacity:1;filter:url(#filter4812-4-6)"
       id="rect815-0-6-7-5"
       width="33.866665"
       height="33.866665"
       x="0"
       y="263.13333"
       rx="5.219131"
       ry="5.219131"
       transform="matrix(1.0130242,0,0,1.0130242,2.0393765,98.627109)"
       clip-path="url(#clipPath4849-7-9)"
       inkscape:export-filename="C:\Users\lsl\checkbox_unpressed.png"
       inkscape:export-xdpi="86.470001"
       inkscape:export-ydpi="86.470001" />
    <rect
       style="opacity:0.43900003;vector-effect:none;fill:#c6c6c6;fill-opacity:1;stroke:none;stroke-width:134.38841248;stroke-linecap:round;stroke-linejoin:round;stroke-miterlimit:4;stroke-dasharray:none;stroke-dashoffset:0;stroke-opacity:1"
       id="rect815-0-4-2"
       width="33.866665"
       height="33.866665"
       x="2.2599201"
       y="365.40811"
       rx="5.219131"
       ry="5.219131"
       inkscape:export-filename="C:\Users\lsl\checkbox_unpressed.png"
       inkscape:export-xdpi="86.470001"
       inkscape:export-ydpi="86.470001" />
    <rect
       style="opacity:0.7229996;vector-effect:none;fill:#000000;fill-opacity:1;stroke:none;stroke-width:121.789505;stroke-linecap:round;stroke-linejoin:round;stroke-miterlimit:4;stroke-dasharray:none;stroke-dashoffset:0;stroke-opacity:1"
       id="rect815-0-7-4-6"
       width="30.691666"
       height="30.691666"
       x="3.8474216"
       y="366.99561"
       rx="4.7298379"
       ry="4.7298379"
       inkscape:export-filename="C:\Users\lsl\checkbox_unpressed.png"
       inkscape:export-xdpi="86.470001"
       inkscape:export-ydpi="86.470001" />
    <rect
       style="opacity:1;vector-effect:none;fill:#020203;fill-opacity:1;stroke:none;stroke-width:134.38841248;stroke-linecap:round;stroke-linejoin:round;stroke-miterlimit:4;stroke-dasharray:none;stroke-dashoffset:0;stroke-opacity:1;filter:url(#filter4812-4-7)"
       id="rect815-0-6-7-7"
       width="33.866665"
       height="33.866665"
       x="0"
       y="263.13333"
       rx="5.219131"
       ry="5.219131"
       transform="matrix(1.0130242,0,0,1.0130242,1.7800402,141.38618)"
       clip-path="url(#clipPath4849-7-3)"
       inkscape:export-filename="C:\Users\lsl\checkbox_checked_16.png"
       inkscape:export-xdpi="10.81"
       inkscape:export-ydpi="10.81" />
    <rect
       style="opacity:1;vector-effect:none;fill:#bcc0d0;fill-opacity:1;stroke:none;stroke-width:134.38841248;stroke-linecap:round;stroke-linejoin:round;stroke-miterlimit:4;stroke-dasharray:none;stroke-dashoffset:0;stroke-opacity:1"
       id="rect815-0-4-0"
       width="33.866665"
       height="33.866665"
       x="2.0005848"
       y="408.16718"
       rx="5.219131"
       ry="5.219131"
       inkscape:export-filename="C:\Users\lsl\checkbox_checked_16.png"
       inkscape:export-xdpi="10.81"
       inkscape:export-ydpi="10.81" />
    <rect
       style="opacity:1;vector-effect:none;fill:#1b2127;fill-opacity:1;stroke:none;stroke-width:121.789505;stroke-linecap:round;stroke-linejoin:round;stroke-miterlimit:4;stroke-dasharray:none;stroke-dashoffset:0;stroke-opacity:1"
       id="rect815-0-7-4-7"
       width="30.691666"
       height="30.691666"
       x="3.5880826"
       y="409.75467"
       rx="4.7298379"
       ry="4.7298379"
       inkscape:export-filename="C:\Users\lsl\checkbox_checked_16.png"
       inkscape:export-xdpi="10.81"
       inkscape:export-ydpi="10.81" />
    <path
       inkscape:connector-curvature="0"
       style="opacity:1;vector-effect:none;fill:#ffffff;fill-opacity:1;stroke:none;stroke-width:134.38841248;stroke-linecap:round;stroke-linejoin:round;stroke-miterlimit:4;stroke-dasharray:none;stroke-dashoffset:0;stroke-opacity:1"
       d="m 29.693467,408.16718 -9.806639,15.1784 -4.867402,-7.35407 -4.442622,2.94142 9.364286,14.14746 14.522627,-22.47718 -3.768246,-2.435 c -0.0159,-1.4e-4 -0.03162,-10e-4 -0.04754,-10e-4 z"
       id="rect815-0-0-3-2"
       inkscape:export-filename="C:\Users\lsl\checkbox_checked_16.png"
       inkscape:export-xdpi="10.81"
       inkscape:export-ydpi="10.81" />
    <rect
       style="opacity:1;vector-effect:none;fill:#020203;fill-opacity:1;stroke:none;stroke-width:134.38841248;stroke-linecap:round;stroke-linejoin:round;stroke-miterlimit:4;stroke-dasharray:none;stroke-dashoffset:0;stroke-opacity:1;filter:url(#filter4812-4-6-8)"
       id="rect815-0-6-7-5-2"
       width="33.866665"
       height="33.866665"
       x="0"
       y="263.13333"
       rx="5.219131"
       ry="5.219131"
       transform="matrix(1.0130242,0,0,1.0130242,2.6414482,184.39428)"
       clip-path="url(#clipPath4849-7-9-0)"
       inkscape:export-filename="C:\Users\lsl\checkbox_unchecked_16.png"
       inkscape:export-xdpi="10.81"
       inkscape:export-ydpi="10.81" />
    <rect
       style="opacity:1;vector-effect:none;fill:#bcc0d0;fill-opacity:1;stroke:none;stroke-width:134.38841248;stroke-linecap:round;stroke-linejoin:round;stroke-miterlimit:4;stroke-dasharray:none;stroke-dashoffset:0;stroke-opacity:1"
       id="rect815-0-4-2-0"
       width="33.866665"
       height="33.866665"
       x="2.8619931"
       y="451.17529"
       rx="5.219131"
       ry="5.219131"
       inkscape:export-filename="C:\Users\lsl\checkbox_unchecked_16.png"
       inkscape:export-xdpi="10.81"
       inkscape:export-ydpi="10.81" />
    <rect
       style="opacity:1;vector-effect:none;fill:#1b2127;fill-opacity:1;stroke:none;stroke-width:121.789505;stroke-linecap:round;stroke-linejoin:round;stroke-miterlimit:4;stroke-dasharray:none;stroke-dashoffset:0;stroke-opacity:1"
       id="rect815-0-7-4-6-4"
       width="30.691666"
       height="30.691666"
       x="4.4494948"
       y="452.76279"
       rx="4.7298379"
       ry="4.7298379"
       inkscape:export-filename="C:\Users\lsl\checkbox_unchecked_16.png"
       inkscape:export-xdpi="10.81"
       inkscape:export-ydpi="10.81" />
  </g>
</svg>
